<?xml version="1.0" encoding="utf-8"?>
<svg version="1.0" width="662.000000pt" height="359.000000pt" viewBox="7.57 -57.917 670.349 608.366" preserveAspectRatio="xMidYMid meet" xmlns="http://www.w3.org/2000/svg">
  <g transform="matrix(0.1, 0, 0, -0.1, 12.620336, 419.68399)" fill="#000000" stroke="none">
    <path d="M3040 3204 c-972 -74 -1828 -435 -2517 -1063 -113 -103 -332 -331 -319 -331 4 0 42 22 84 49 199 128 515 293 747 391 1267 535 2771 595 4100 163 426 -139 856 -340 1208 -567 31 -20 57 -34 57 -30 0 15 -203 225 -320 331 -636 576 -1421 932 -2281 1034 -168 20 -616 33 -759 23z" style="fill: rgb(0, 113, 189);"/>
    <path d="M3195 2310 c-238 -27 -422 -117 -595 -290 -126 -126 -187 -224 -242 -385 -99 -293 -58 -614 113 -867 139 -206 359 -359 606 -420 132 -33 331 -30 468 6 360 95 626 362 722 725 22 82 26 118 26 241 0 125 -4 158 -27 243 -51 189 -140 340 -278 473 -213 204 -509 307 -793 274z m168 -204 c143 -59 138 -276 -9 -332 -37 -14 -51 -15 -84 -5 -152 45 -175 261 -35 331 47 23 83 25 128 6z m-512 -360 c52 -35 80 -85 81 -144 0 -90 -54 -151 -142 -160 -167 -16 -267 184 -147 296 51 48 142 51 208 8z m1097 -3 c70 -52 91 -136 53 -211 -23 -46 -46 -67 -94 -87 -112 -47 -229 27 -229 144 0 75 39 133 112 166 45 20 123 14 158 -12z m-1089 -629 c89 -53 99 -188 19 -260 -63 -58 -145 -70 -212 -31 -79 45 -100 146 -47 228 25 40 49 58 111 83 24 9 99 -2 129 -20z m1082 -19 c54 -35 82 -94 77 -160 -5 -62 -29 -98 -84 -125 -48 -24 -92 -25 -142 -5 -73 31 -114 89 -115 165 -2 132 148 203 264 125z m-575 -254 c108 -49 137 -193 57 -282 -68 -75 -157 -77 -229 -5 -33 33 -44 51 -49 90 -9 55 5 110 37 151 23 29 90 65 123 65 11 0 38 -9 61 -19z" style=""/>
  </g>
</svg>